<?xml version="1.0" encoding="UTF-8" standalone="no"?>
<svg xmlns:inkscape="http://www.inkscape.org/namespaces/inkscape" xmlns:sodipodi="http://sodipodi.sourceforge.net/DTD/sodipodi-0.dtd" xmlns="http://www.w3.org/2000/svg" xmlns:svg="http://www.w3.org/2000/svg" xmlns:rdf="http://www.w3.org/1999/02/22-rdf-syntax-ns#" xmlns:cc="http://creativecommons.org/ns#" xmlns:dc="http://purl.org/dc/elements/1.1/" width="51.15324mm" height="11.760627mm" viewBox="0 0 51.15324 11.760627" version="1.1" id="svg904" inkscape:version="1.2.2 (b0a84865, 2022-12-01)" sodipodi:docname="logo_white.svg" inkscape:export-filename="D:\LIBERTAS\Intern\Projekte\Projekt Gündesli\CI\logo_white.png" inkscape:export-xdpi="151.18242" inkscape:export-ydpi="151.18242">
  <defs id="defs898"></defs>
  <metadata id="metadata901"></metadata>
  <g inkscape:label="Ebene 1" inkscape:groupmode="layer" id="layer1" transform="translate(-17.03881,-18.938049)">
    <g aria-label="Gündesli &amp; Partner" id="text1500" style="font-size:4.23333px;line-height:1.25;font-family:'Showcard Gothic';-inkscape-font-specification:'Showcard Gothic';fill:#ffffff;stroke-width:0.264583">
      <path d="m 21.516644,23.008076 h -0.696598 q -0.06408,0 -0.09715,0.02894 -0.03101,0.02894 -0.05168,0.103353 h -0.06615 v -0.657324 h 0.06615 q 0.02067,0.07648 0.05168,0.10542 0.03307,0.02687 0.09715,0.02687 h 1.339452 v 0.06615 q -0.07441,0.02067 -0.10542,0.05374 -0.02894,0.03307 -0.02894,0.09715 v 0.578775 q 0,0.06408 0.02894,0.09715 0.02894,0.03307 0.10542,0.05374 v 0.05168 q -0.804084,0.458886 -1.55856,0.458886 -0.684195,0 -1.11621,-0.324528 -0.543635,-0.409277 -0.543635,-1.13688 0,-0.677994 0.483691,-1.079003 0.458886,-0.380338 1.219563,-0.380338 0.241845,0 0.454752,0.04547 0.214974,0.04341 0.487825,0.148828 0.14056,0.05581 0.200504,0.05581 0.04341,0 0.101286,-0.04754 l 0.05788,0.03101 -0.330729,0.675927 -0.05995,-0.03101 q -0.0021,-0.06821 -0.0186,-0.09715 -0.01654,-0.03101 -0.07441,-0.07441 -0.126091,-0.09509 -0.370003,-0.161231 -0.243913,-0.06821 -0.460954,-0.06821 -0.44235,0 -0.733805,0.248047 -0.328661,0.28112 -0.328661,0.742073 0,0.446484 0.320393,0.721402 0.293522,0.252181 0.773079,0.252181 0.233577,0 0.460953,-0.05374 0.227377,-0.05374 0.392741,-0.146761 z" style="font-family:'Copperplate Gothic Bold';-inkscape-font-specification:'Copperplate Gothic Bold, '" id="path8933"></path>
      <path d="m 25.016169,21.918738 v 1.225764 q 0,0.419612 -0.165364,0.615983 -0.266651,0.312125 -1.004589,0.312125 -0.494027,0 -0.797884,-0.150895 -0.219108,-0.109554 -0.299723,-0.312125 -0.07441,-0.186035 -0.07441,-0.465088 v -1.225764 q 0,-0.06408 -0.02894,-0.09715 -0.02894,-0.03307 -0.103352,-0.05581 v -0.05788 h 0.820621 v 0.05788 q -0.07648,0.02067 -0.10542,0.05581 -0.02894,0.03307 -0.02894,0.09715 v 1.114143 q 0,0.194303 0.03307,0.297656 0.03514,0.103353 0.119889,0.169499 0.169499,0.134358 0.489892,0.134358 0.320394,0 0.489892,-0.134358 0.08268,-0.06615 0.115756,-0.169499 0.03307,-0.103353 0.03307,-0.297656 v -1.114143 q 0,-0.06408 -0.02894,-0.09715 -0.02687,-0.03307 -0.103353,-0.05581 v -0.05788 h 0.771012 v 0.05788 q -0.07441,0.02067 -0.103353,0.05581 -0.02894,0.03307 -0.02894,0.09715 z M 23.44314,20.901747 q 0.117822,0 0.19637,0.07855 0.07855,0.08061 0.07855,0.19637 0,0.107487 -0.07855,0.186035 -0.07855,0.07855 -0.192236,0.07855 -0.109554,0 -0.190169,-0.07855 -0.07855,-0.07648 -0.07855,-0.190169 0,-0.111621 0.07648,-0.188102 0.07648,-0.07855 0.188102,-0.08268 z m 0.824755,0 q 0.113688,0 0.192236,0.07855 0.07855,0.08061 0.07855,0.186035 0,0.117822 -0.07855,0.19637 -0.07855,0.07855 -0.19637,0.07855 -0.109554,0 -0.188102,-0.07855 -0.07648,-0.08062 -0.07648,-0.192236 0,-0.109554 0.07648,-0.188102 0.07855,-0.07855 0.192236,-0.08061 z" style="font-family:'Copperplate Gothic Bold';-inkscape-font-specification:'Copperplate Gothic Bold, '" id="path8935"></path>
      <path d="m 26.146848,22.497514 v 1.314647 q 0,0.06408 0.02894,0.09922 0.03101,0.03514 0.103353,0.05581 v 0.05581 h -0.768945 v -0.05788 q 0.07235,-0.0186 0.101286,-0.05374 0.03101,-0.03514 0.03101,-0.09922 v -1.893423 q 0,-0.06408 -0.02894,-0.09715 -0.02894,-0.03307 -0.103353,-0.05581 v -0.05788 h 0.888834 v 0.05788 q -0.09095,0.02274 -0.09095,0.08062 0,0.04961 0.06615,0.115755 l 1.240233,1.231965 v -1.275373 q 0,-0.06408 -0.02894,-0.09715 -0.02894,-0.03514 -0.103353,-0.05581 v -0.05788 h 0.768945 v 0.05788 q -0.07441,0.02067 -0.103353,0.05581 -0.02894,0.03307 -0.02894,0.09715 v 1.893423 q 0,0.06408 0.02894,0.09922 0.02894,0.03307 0.103353,0.05581 v 0.05581 h -0.828889 v -0.05581 q 0.09095,-0.0186 0.09095,-0.07648 0,-0.02894 -0.02481,-0.05994 -0.0248,-0.03101 -0.113688,-0.121957 z" style="font-family:'Copperplate Gothic Bold';-inkscape-font-specification:'Copperplate Gothic Bold, '" id="path8937"></path>
      <path d="m 28.790613,23.812161 v -1.893423 q 0,-0.06408 -0.02894,-0.09715 -0.02894,-0.03307 -0.103353,-0.05581 v -0.05788 h 1.358055 q 0.423747,0 0.667659,0.10542 0.343132,0.148828 0.494027,0.49196 0.10542,0.239778 0.10542,0.560172 0,0.593245 -0.353467,0.899169 -0.159163,0.136425 -0.376204,0.198437 -0.214974,0.05994 -0.537435,0.05994 h -1.358055 v -0.05788 q 0.07235,-0.0186 0.101286,-0.05374 0.03101,-0.03514 0.03101,-0.09922 z m 0.55397,-0.208773 h 0.591178 q 0.40721,0 0.591178,-0.186035 0.192236,-0.194303 0.192236,-0.551903 0,-0.357601 -0.192236,-0.551904 -0.09508,-0.09715 -0.235644,-0.14056 -0.14056,-0.04548 -0.355534,-0.04548 h -0.591178 z" style="font-family:'Copperplate Gothic Bold';-inkscape-font-specification:'Copperplate Gothic Bold, '" id="path8939"></path>
      <path d="m 32.323211,23.039082 v 0.564306 h 1.469676 q 0.06408,0 0.09715,-0.02894 0.03514,-0.02894 0.05581,-0.10542 h 0.05788 v 0.686262 h -0.05788 q -0.0186,-0.07235 -0.05374,-0.103353 -0.03514,-0.02894 -0.09922,-0.02894 h -2.155939 v -0.05788 q 0.07235,-0.0186 0.101286,-0.05374 0.03101,-0.03514 0.03101,-0.09922 v -1.893423 q 0,-0.06408 -0.02894,-0.09715 -0.02894,-0.03307 -0.103353,-0.05581 v -0.05788 h 2.09186 q 0.06615,0 0.09922,-0.02894 0.03514,-0.02894 0.05581,-0.103353 h 0.05581 v 0.686262 h -0.05581 q -0.02067,-0.07648 -0.05581,-0.105419 -0.03307,-0.02894 -0.09922,-0.02894 h -1.405597 v 0.508495 h 0.872297 q 0.06408,0 0.09715,-0.02894 0.03514,-0.02894 0.05788,-0.103353 h 0.05581 v 0.669726 h -0.05581 q -0.02067,-0.07441 -0.05581,-0.103353 -0.03307,-0.03101 -0.09922,-0.03101 z" style="font-family:'Copperplate Gothic Bold';-inkscape-font-specification:'Copperplate Gothic Bold, '" id="path8941"></path>
      <path d="m 36.579278,21.916671 -0.279052,0.539502 -0.04961,-0.02687 q 0,-0.06821 -0.04341,-0.107487 -0.117822,-0.10542 -0.347265,-0.173633 -0.229443,-0.06821 -0.465088,-0.06821 -0.200504,0 -0.355533,0.05581 -0.223242,0.08062 -0.223242,0.233577 0,0.101286 0.107487,0.144694 0.107487,0.04134 0.415478,0.06615 l 0.326595,0.02481 q 0.42788,0.03307 0.651122,0.165364 0.124023,0.07441 0.204639,0.198437 0.101285,0.15503 0.101285,0.349333 0,0.353466 -0.318326,0.558105 -0.303857,0.19637 -0.822688,0.19637 -0.522965,0 -1.01079,-0.221175 -0.03307,-0.01447 -0.05581,-0.01447 -0.04134,0 -0.07648,0.04961 l -0.05168,-0.02067 0.237711,-0.566373 0.05168,0.02067 q 0,0.0124 0,0.01654 0,0.05374 0.04134,0.09095 0.103353,0.09095 0.357601,0.159163 0.254248,0.06615 0.502295,0.06615 0.219107,0 0.39274,-0.05788 0.214974,-0.07028 0.214974,-0.227376 0,-0.12609 -0.148828,-0.1757 -0.09922,-0.03307 -0.357601,-0.05581 l -0.324527,-0.02687 q -0.262516,-0.02067 -0.401009,-0.05374 -0.138493,-0.03307 -0.241846,-0.09715 -0.132291,-0.08268 -0.206705,-0.225309 -0.07441,-0.142627 -0.07441,-0.312125 0,-0.380339 0.326595,-0.580843 0.297656,-0.181901 0.735871,-0.181901 0.237712,0 0.44235,0.05374 0.206706,0.05168 0.491959,0.183968 0.08475,0.03927 0.117823,0.03927 0.03307,0 0.08475,-0.04548 z" style="font-family:'Copperplate Gothic Bold';-inkscape-font-specification:'Copperplate Gothic Bold, '" id="path8943"></path>
      <path d="m 37.645878,23.603388 h 1.296044 q 0.06614,0 0.09922,-0.02894 0.03307,-0.02894 0.05581,-0.10542 h 0.05581 v 0.686262 h -0.05581 q -0.02067,-0.07441 -0.05581,-0.103353 -0.03307,-0.02894 -0.09922,-0.02894 h -1.982307 v -0.05788 q 0.07235,-0.0186 0.101286,-0.05374 0.03101,-0.03514 0.03101,-0.09922 v -1.893423 q 0,-0.06408 -0.02894,-0.09715 -0.02894,-0.03307 -0.103353,-0.05581 v -0.05788 h 0.818554 v 0.05788 q -0.07441,0.02067 -0.103352,0.05581 -0.02894,0.03307 -0.02894,0.09715 z" style="font-family:'Copperplate Gothic Bold';-inkscape-font-specification:'Copperplate Gothic Bold, '" id="path8945"></path>
      <path d="m 40.076736,21.918738 v 1.893423 q 0,0.06408 0.02894,0.09922 0.02894,0.03307 0.103353,0.05581 v 0.05581 h -0.818554 v -0.05788 q 0.07235,-0.0186 0.101286,-0.05374 0.03101,-0.03514 0.03101,-0.09922 v -1.893423 q 0,-0.06408 -0.02894,-0.09715 -0.02894,-0.03307 -0.103353,-0.05581 v -0.05788 h 0.818554 v 0.05788 q -0.07441,0.02067 -0.103353,0.05581 -0.02894,0.03307 -0.02894,0.09715 z" style="font-family:'Copperplate Gothic Bold';-inkscape-font-specification:'Copperplate Gothic Bold, '" id="path8947"></path>
      <path d="m 44.634593,22.079968 v 0.783415 h -0.06615 q -0.0124,-0.103353 -0.06201,-0.103353 -0.04548,0 -0.136426,0.05994 -0.09095,0.05995 -0.159163,0.136426 -0.121956,0.134359 -0.169499,0.291455 0.128158,0.130224 0.221175,0.186035 0.09508,0.05374 0.194303,0.05374 0.09095,0 0.111621,-0.09922 h 0.06615 v 0.651122 q -0.05788,-0.0124 -0.363802,-0.03101 -0.117822,-0.0083 -0.293521,-0.109554 -0.173633,-0.101285 -0.299724,-0.235644 -0.419612,0.409277 -0.99632,0.409277 -0.450618,0 -0.748274,-0.214974 -0.33693,-0.241845 -0.33693,-0.63872 0,-0.531233 0.628384,-0.839224 -0.279052,-0.243913 -0.279052,-0.533301 0,-0.33693 0.322461,-0.535367 0.262516,-0.159163 0.601513,-0.159163 0.380338,0 0.665592,0.190169 0.279052,0.186035 0.279052,0.516764 0,0.183967 -0.08268,0.312125 -0.08062,0.128157 -0.291455,0.276985 0.214974,0.138493 0.332796,0.392741 0.198437,-0.343131 0.388606,-0.510563 0.19017,-0.169498 0.473356,-0.250114 z M 42.883797,21.57354 q -0.157096,0 -0.274918,0.07648 -0.150895,0.09715 -0.150895,0.279052 0,0.152963 0.119889,0.254248 0.121956,0.09922 0.305924,0.09922 0.159163,0 0.276986,-0.07648 0.150895,-0.09922 0.150895,-0.272851 0,-0.159164 -0.117823,-0.258382 -0.117822,-0.09922 -0.310058,-0.101286 z m -0.146761,1.060399 q -0.23151,0 -0.401009,0.134359 -0.167431,0.134359 -0.167431,0.33693 0,0.212907 0.163297,0.349332 0.165365,0.136426 0.42168,0.136426 0.264583,0 0.450618,-0.132291 0.186035,-0.130225 0.186035,-0.310059 0,-0.08475 -0.05788,-0.186035 -0.05581,-0.103353 -0.142627,-0.171565 -0.190169,-0.15503 -0.452685,-0.157097 z" style="font-family:'Copperplate Gothic Bold';-inkscape-font-specification:'Copperplate Gothic Bold, '" id="path8949"></path>
      <path d="m 46.807068,22.877852 v 0.930175 q 0,0.06201 0.02894,0.09715 0.03101,0.03307 0.103353,0.05168 v 0.06615 h -0.880566 v -0.06615 q 0.07441,-0.02067 0.103353,-0.05374 0.02894,-0.03307 0.02894,-0.09508 v -2.389516 q 0,-0.06408 -0.02894,-0.09715 -0.02894,-0.03307 -0.103353,-0.05374 v -0.06615 h 1.761132 q 0.307991,0 0.487825,0.04134 0.181901,0.04134 0.320393,0.142627 0.142627,0.10542 0.223242,0.276985 0.08062,0.177767 0.08062,0.376204 0,0.285254 -0.152962,0.500228 -0.132291,0.183968 -0.351399,0.262516 -0.217041,0.07648 -0.607714,0.07648 z m 0,-0.465088 h 0.940511 q 0.281119,0 0.394807,-0.05994 0.07235,-0.03927 0.115755,-0.124024 0.04548,-0.08682 0.04548,-0.190169 0,-0.101285 -0.04548,-0.186035 -0.04341,-0.08682 -0.115755,-0.12609 -0.111621,-0.05994 -0.394807,-0.05994 h -0.940511 z" style="font-family:'Copperplate Gothic Bold';-inkscape-font-specification:'Copperplate Gothic Bold, '" id="path8951"></path>
      <path d="m 50.703468,23.444225 h -1.064534 l -0.119889,0.252181 q -0.04341,0.09095 -0.04341,0.142627 0,0.09922 0.132291,0.12609 v 0.05788 h -0.851627 v -0.05788 q 0.07855,-0.0124 0.115755,-0.04754 0.03927,-0.03514 0.09095,-0.138493 l 0.845426,-1.711522 q 0.04754,-0.09715 0.04754,-0.169498 0,-0.08475 -0.115755,-0.132292 v -0.05788 h 0.899169 v 0.05788 q -0.113688,0.04547 -0.113688,0.14056 0,0.06821 0.05168,0.167431 l 0.876432,1.659846 q 0.07235,0.136426 0.113688,0.177767 0.04134,0.03927 0.12609,0.05581 v 0.05581 h -0.944644 v -0.05581 q 0.134358,-0.02274 0.134358,-0.12609 0,-0.06408 -0.05168,-0.159163 z m -0.167432,-0.324528 -0.378271,-0.742073 -0.359668,0.742073 z" style="font-family:'Copperplate Gothic Bold';-inkscape-font-specification:'Copperplate Gothic Bold, '" id="path8953"></path>
      <path d="m 52.572088,23.072155 v 0.740006 q 0,0.06408 0.02894,0.09922 0.02894,0.03307 0.103353,0.05581 v 0.05581 h -0.818554 v -0.05788 q 0.07235,-0.0186 0.101285,-0.05374 0.03101,-0.03514 0.03101,-0.09922 v -1.893423 q 0,-0.06408 -0.02894,-0.09715 -0.02894,-0.03307 -0.103352,-0.05581 v -0.05788 h 1.517218 q 0.295589,0 0.450619,0.03101 0.155029,0.02894 0.276985,0.107487 0.250114,0.163298 0.250114,0.533301 0,0.281119 -0.155029,0.440282 -0.152963,0.157097 -0.496094,0.227376 l 0.438216,0.611849 q 0.119889,0.169498 0.190169,0.23151 0.07235,0.05994 0.163298,0.07648 v 0.05581 h -0.971517 v -0.05581 q 0.107487,-0.02894 0.107487,-0.09302 0,-0.04548 -0.06614,-0.138493 l -0.463021,-0.663525 z m 0,-0.419612 h 0.835091 q 0.190169,0 0.281119,-0.04134 0.128158,-0.05581 0.128158,-0.221175 0,-0.146761 -0.09095,-0.204639 -0.08888,-0.05788 -0.318326,-0.05788 h -0.835091 z" style="font-family:'Copperplate Gothic Bold';-inkscape-font-specification:'Copperplate Gothic Bold, '" id="path8955"></path>
      <path d="m 56.092282,22.127511 v 1.68465 q 0,0.06408 0.02894,0.09922 0.02894,0.03307 0.103353,0.05581 v 0.05581 H 55.40602 v -0.05788 q 0.07235,-0.0186 0.101285,-0.05374 0.03101,-0.03514 0.03101,-0.09922 v -1.68465 h -0.682128 q -0.06615,0 -0.101286,0.03101 -0.03307,0.02894 -0.05374,0.103352 h -0.05581 v -0.686262 h 0.05788 q 0.0186,0.07235 0.05168,0.103353 0.03514,0.02894 0.101286,0.02894 h 1.918227 q 0.06615,0 0.09922,-0.02894 0.03514,-0.02894 0.05581,-0.103353 h 0.05581 v 0.686262 h -0.05581 q -0.02067,-0.07441 -0.05581,-0.103352 -0.03307,-0.03101 -0.09922,-0.03101 z" style="font-family:'Copperplate Gothic Bold';-inkscape-font-specification:'Copperplate Gothic Bold, '" id="path8957"></path>
      <path d="m 57.859614,22.497514 v 1.314647 q 0,0.06408 0.02894,0.09922 0.03101,0.03514 0.103353,0.05581 v 0.05581 h -0.768945 v -0.05788 q 0.07235,-0.0186 0.101286,-0.05374 0.03101,-0.03514 0.03101,-0.09922 v -1.893423 q 0,-0.06408 -0.02894,-0.09715 -0.02894,-0.03307 -0.103353,-0.05581 v -0.05788 h 0.888834 v 0.05788 q -0.09095,0.02274 -0.09095,0.08062 0,0.04961 0.06615,0.115755 l 1.240234,1.231965 v -1.275373 q 0,-0.06408 -0.02894,-0.09715 -0.02894,-0.03514 -0.103353,-0.05581 v -0.05788 h 0.768945 v 0.05788 q -0.07441,0.02067 -0.103353,0.05581 -0.02894,0.03307 -0.02894,0.09715 v 1.893423 q 0,0.06408 0.02894,0.09922 0.02894,0.03307 0.103353,0.05581 v 0.05581 h -0.82889 v -0.05581 q 0.09095,-0.0186 0.09095,-0.07648 0,-0.02894 -0.02481,-0.05994 -0.02481,-0.03101 -0.113688,-0.121957 z" style="font-family:'Copperplate Gothic Bold';-inkscape-font-specification:'Copperplate Gothic Bold, '" id="path8959"></path>
      <path d="m 61.057348,23.039082 v 0.564306 h 1.469677 q 0.06408,0 0.09715,-0.02894 0.03514,-0.02894 0.05581,-0.10542 h 0.05788 v 0.686262 h -0.05788 q -0.0186,-0.07235 -0.05374,-0.103353 -0.03514,-0.02894 -0.09922,-0.02894 h -2.155939 v -0.05788 q 0.07235,-0.0186 0.101285,-0.05374 0.03101,-0.03514 0.03101,-0.09922 v -1.893423 q 0,-0.06408 -0.02894,-0.09715 -0.02894,-0.03307 -0.103352,-0.05581 v -0.05788 h 2.09186 q 0.06615,0 0.09922,-0.02894 0.03514,-0.02894 0.05581,-0.103353 h 0.05581 v 0.686262 h -0.05581 q -0.02067,-0.07648 -0.05581,-0.105419 -0.03307,-0.02894 -0.09922,-0.02894 h -1.405598 v 0.508495 h 0.872298 q 0.06408,0 0.09715,-0.02894 0.03514,-0.02894 0.05788,-0.103353 h 0.05581 v 0.669726 h -0.05581 q -0.02067,-0.07441 -0.05581,-0.103353 -0.03307,-0.03101 -0.09922,-0.03101 z" style="font-family:'Copperplate Gothic Bold';-inkscape-font-specification:'Copperplate Gothic Bold, '" id="path8961"></path>
      <path d="m 63.773462,23.072155 v 0.740006 q 0,0.06408 0.02894,0.09922 0.02894,0.03307 0.103353,0.05581 v 0.05581 H 63.0872 v -0.05788 q 0.07235,-0.0186 0.101285,-0.05374 0.03101,-0.03514 0.03101,-0.09922 v -1.893423 q 0,-0.06408 -0.02894,-0.09715 -0.02894,-0.03307 -0.103353,-0.05581 v -0.05788 h 1.517219 q 0.295588,0 0.450618,0.03101 0.155029,0.02894 0.276985,0.107487 0.250114,0.163298 0.250114,0.533301 0,0.281119 -0.155029,0.440282 -0.152962,0.157097 -0.496094,0.227376 l 0.438216,0.611849 q 0.119889,0.169498 0.190169,0.23151 0.07235,0.05994 0.163298,0.07648 v 0.05581 h -0.971517 v -0.05581 q 0.107487,-0.02894 0.107487,-0.09302 0,-0.04548 -0.06615,-0.138493 L 64.3295,23.072155 Z m 0,-0.419612 h 0.835091 q 0.190169,0 0.281119,-0.04134 0.128158,-0.05581 0.128158,-0.221175 0,-0.146761 -0.09095,-0.204639 -0.08888,-0.05788 -0.318326,-0.05788 h -0.835091 z" style="font-family:'Copperplate Gothic Bold';-inkscape-font-specification:'Copperplate Gothic Bold, '" id="path8963"></path>
    </g>
    <path style="fill:none;stroke:#ffffff;stroke-width:0.0493307;stroke-linecap:butt;stroke-linejoin:miter;stroke-miterlimit:4;stroke-dasharray:none;stroke-opacity:1" d="m 18.919775,25.591056 h 46.8218" id="path1502"></path>
    <g aria-label="Versicherung - Finanzen - Kapital" id="text1506" style="font-size:2.82222px;line-height:1.25;font-family:'Showcard Gothic';-inkscape-font-specification:'Showcard Gothic';fill:#ffffff;stroke-width:0.264583">
      <path d="m 24.988625,27.021679 q 0,0.114377 -0.348643,0.895724 -0.347265,0.781347 -0.347265,0.898481 h -0.179145 q 0,-0.106109 -0.329351,-0.89159 -0.327973,-0.785482 -0.327973,-0.902615 h 0.261827 q 0,0.107487 0.250803,0.766189 0.250803,0.657324 0.250803,0.752408 h 0.01378 q 0,-0.107487 0.253559,-0.749652 0.253559,-0.643543 0.253559,-0.768945 z" style="font-family:Candara;-inkscape-font-specification:Candara" id="path8874"></path>
      <path d="m 26.234371,28.006976 q 0,0.05788 -0.0055,0.159852 l -0.946712,0.01654 q 0.01378,0.201193 0.155718,0.337619 0.141938,0.135047 0.376205,0.135047 0.209461,0 0.39274,-0.05099 l -0.02343,0.194303 q -0.135048,0.05374 -0.389985,0.05374 -0.35829,0 -0.547081,-0.195682 -0.187413,-0.195681 -0.187413,-0.4768 0,-0.300413 0.170877,-0.516764 0.172254,-0.21773 0.461642,-0.21773 0.265961,0 0.403765,0.157096 0.139182,0.157096 0.139182,0.403765 z m -0.230132,0.0028 q 0,-0.387229 -0.323839,-0.387229 -0.330729,0 -0.389985,0.402387 z" style="font-family:Candara;-inkscape-font-specification:Candara" id="path8876"></path>
      <path d="m 27.385032,27.506748 -0.06201,0.219108 q -0.107487,-0.04272 -0.199815,-0.04272 -0.259071,0 -0.336241,0.246669 0,0.633897 0.0083,0.886078 H 26.55132 q 0.02205,-0.436838 0.02205,-0.677995 0,-0.326594 -0.06477,-0.625629 l 0.241157,-0.03445 q 0.02618,0.151584 0.02618,0.202571 h 0.01102 q 0.148828,-0.219108 0.347265,-0.219108 0.104731,0 0.250803,0.04548 z" style="font-family:Candara;-inkscape-font-specification:Candara" id="path8878"></path>
      <path d="m 28.428206,28.442436 q 0,0.402386 -0.514008,0.402386 -0.227376,0 -0.424435,-0.04547 l 0.04272,-0.202571 q 0.179145,0.0689 0.388606,0.0689 0.300413,0 0.300413,-0.170877 0,-0.08268 -0.06752,-0.130914 -0.06615,-0.04961 -0.220486,-0.110243 -0.195682,-0.07717 -0.283876,-0.148828 -0.129535,-0.106108 -0.129535,-0.256314 0,-0.157097 0.118511,-0.268718 0.118511,-0.112999 0.361046,-0.112999 0.237022,0 0.380338,0.03996 l -0.04272,0.198438 q -0.148828,-0.05926 -0.34451,-0.05926 -0.264583,0 -0.264583,0.152962 0,0.07717 0.05926,0.125402 0.05926,0.04685 0.23151,0.114377 0.186035,0.07304 0.275607,0.143316 0.13367,0.108864 0.13367,0.260449 z" style="font-family:Candara;-inkscape-font-specification:Candara" id="path8880"></path>
      <path d="m 28.984933,28.815884 h -0.249425 q 0.01929,-0.275608 0.01929,-0.629763 0,-0.398253 -0.04823,-0.668348 l 0.275607,-0.03721 q -0.01654,0.288009 -0.01654,0.705555 0,0.330729 0.01929,0.629763 z m 0.05788,-1.722547 q 0,0.07028 -0.04548,0.122646 -0.04547,0.05099 -0.128157,0.05099 -0.07028,0 -0.110243,-0.0441 -0.03859,-0.04548 -0.03859,-0.108865 0,-0.0689 0.04685,-0.119889 0.04685,-0.05099 0.129536,-0.05099 0.06752,0 0.106109,0.04547 0.03996,0.0441 0.03996,0.104731 z" style="font-family:Candara;-inkscape-font-specification:Candara" id="path8882"></path>
      <path d="m 30.351946,28.605044 -0.01378,0.184657 q -0.111621,0.06339 -0.299034,0.06339 -0.356911,0 -0.545702,-0.19706 -0.188791,-0.197059 -0.188791,-0.475422 0,-0.2949 0.198437,-0.507118 0.198437,-0.212218 0.525032,-0.212218 0.163987,0 0.267339,0.03307 l -0.03721,0.216352 q -0.144694,-0.05374 -0.293522,-0.05374 -0.195681,0 -0.311436,0.136426 -0.115755,0.136426 -0.115755,0.341753 0,0.223242 0.137804,0.37207 0.137803,0.148828 0.389984,0.148828 0.103353,0 0.286632,-0.05099 z" style="font-family:Candara;-inkscape-font-specification:Candara" id="path8884"></path>
      <path d="m 31.791995,28.815884 h -0.250803 q 0.03032,-0.362424 0.03032,-0.779969 0,-0.223242 -0.08406,-0.300412 -0.08268,-0.07855 -0.230133,-0.07855 -0.206705,0 -0.387228,0.141938 0,0.752409 0.01102,1.016992 h -0.242534 q 0.0124,-0.363802 0.0124,-1.028016 0,-0.581532 -0.03996,-0.910883 l 0.261827,-0.01378 q -0.01102,0.420301 -0.01102,0.779969 h 0.0083 q 0.206705,-0.181901 0.453374,-0.181901 0.220486,0 0.344509,0.103353 0.124024,0.101975 0.124024,0.359668 0,0.02618 -0.0028,0.103352 -0.0028,0.07579 -0.0028,0.13367 0,0.198437 0.0055,0.654568 z" style="font-family:Candara;-inkscape-font-specification:Candara" id="path8886"></path>
      <path d="m 33.283031,28.006976 q 0,0.05788 -0.0055,0.159852 l -0.946711,0.01654 q 0.01378,0.201193 0.155718,0.337619 0.141938,0.135047 0.376204,0.135047 0.209462,0 0.392741,-0.05099 l -0.02343,0.194303 q -0.135048,0.05374 -0.389985,0.05374 -0.358289,0 -0.54708,-0.195682 -0.187413,-0.195681 -0.187413,-0.4768 0,-0.300413 0.170876,-0.516764 0.172255,-0.21773 0.461643,-0.21773 0.265961,0 0.403765,0.157096 0.139181,0.157096 0.139181,0.403765 z m -0.230132,0.0028 q 0,-0.387229 -0.323839,-0.387229 -0.330729,0 -0.389984,0.402387 z" style="font-family:Candara;-inkscape-font-specification:Candara" id="path8888"></path>
      <path d="m 34.433692,27.506748 -0.06201,0.219108 q -0.107487,-0.04272 -0.199815,-0.04272 -0.259071,0 -0.336241,0.246669 0,0.633897 0.0083,0.886078 h -0.243913 q 0.02205,-0.436838 0.02205,-0.677995 0,-0.326594 -0.06477,-0.625629 l 0.241157,-0.03445 q 0.02618,0.151584 0.02618,0.202571 h 0.01103 q 0.148828,-0.219108 0.347265,-0.219108 0.104731,0 0.250803,0.04548 z" style="font-family:Candara;-inkscape-font-specification:Candara" id="path8890"></path>
      <path d="m 35.763498,28.814506 -0.213596,0.0083 q -0.01929,-0.07717 -0.01929,-0.12678 h -0.01378 q -0.183279,0.154341 -0.445106,0.154341 -0.2384,0 -0.347265,-0.114378 -0.107487,-0.115755 -0.107487,-0.464398 0,-0.04961 0.0028,-0.14745 0.0028,-0.09784 0.0028,-0.13367 0,-0.202571 -0.02343,-0.4768 l 0.256315,-0.0096 q -0.01654,0.265961 -0.01654,0.454753 0,0.434081 0.05512,0.566373 0.0565,0.130913 0.252181,0.130913 0.220486,0 0.363802,-0.110243 0,-0.766188 -0.01378,-1.032149 l 0.248047,-0.0096 q -0.01102,0.259071 -0.01102,0.71658 0,0.293522 0.03032,0.593934 z" style="font-family:Candara;-inkscape-font-specification:Candara" id="path8892"></path>
      <path d="m 37.280717,28.815884 h -0.250803 q 0.03032,-0.362424 0.03032,-0.790994 0,-0.212217 -0.08682,-0.289387 -0.08544,-0.07855 -0.245291,-0.07855 -0.195681,0 -0.361046,0.141938 0,0.469911 0.0055,1.016992 h -0.250803 q 0.02343,-0.468533 0.02343,-0.677995 0,-0.32246 -0.06063,-0.625629 l 0.242534,-0.03445 0.02618,0.16812 h 0.01102 q 0.20395,-0.184657 0.436838,-0.184657 0.228754,0 0.354156,0.101975 0.125401,0.100597 0.125401,0.359668 0,0.02618 -0.0028,0.103352 -0.0028,0.07717 -0.0028,0.103353 0,0.230132 0.0055,0.686263 z" style="font-family:Candara;-inkscape-font-specification:Candara" id="path8894"></path>
      <path d="m 38.937118,27.333116 -0.02205,0.190169 q -0.256315,0 -0.282498,0.08268 v 0.01378 q 0.08819,0.107487 0.08819,0.245291 0,0.214974 -0.141938,0.355534 -0.14056,0.139181 -0.43546,0.139181 -0.130913,0 -0.208083,-0.02756 -0.06752,0.04823 -0.06752,0.119889 0,0.08819 0.07993,0.117133 0.101975,0.03859 0.425813,0.03859 0.523655,0 0.523655,0.347265 0,0.248047 -0.20395,0.410655 -0.203949,0.162609 -0.527788,0.162609 -0.332107,0 -0.474045,-0.121267 -0.14056,-0.11989 -0.14056,-0.289388 0,-0.15434 0.0689,-0.248047 0.07028,-0.09371 0.173633,-0.115755 v -0.0124 q -0.108865,-0.05237 -0.108865,-0.201194 0,-0.135047 0.137804,-0.237022 v -0.01102 q -0.07304,-0.03583 -0.139182,-0.121268 -0.06615,-0.08544 -0.06615,-0.212217 0,-0.219108 0.144694,-0.356912 0.144694,-0.137804 0.418923,-0.137804 0.22462,0 0.352778,0.0813 h 0.01516 q 0.0441,-0.232888 0.23151,-0.232888 0.101975,0 0.157097,0.02067 z m -0.246669,1.715656 q 0,-0.129536 -0.09509,-0.183279 -0.09371,-0.05237 -0.354155,-0.05237 -0.176389,0 -0.322461,-0.01654 -0.16812,0.0813 -0.16812,0.238401 0,0.336241 0.440971,0.336241 0.230133,0 0.363802,-0.08957 0.135048,-0.08957 0.135048,-0.232888 z m -0.191547,-1.127234 q 0,-0.151585 -0.09646,-0.231511 -0.09508,-0.0813 -0.242534,-0.0813 -0.139182,0 -0.232889,0.07855 -0.09371,0.07717 -0.09371,0.220486 0,0.150206 0.09508,0.228754 0.09646,0.07855 0.246669,0.07855 0.137804,0 0.230132,-0.07579 0.09371,-0.07717 0.09371,-0.217729 z" style="font-family:Candara;-inkscape-font-specification:Candara" id="path8896"></path>
      <path d="m 40.25452,28.015244 -0.01654,0.177767 -0.5898,0.01929 0.0124,-0.176388 z" style="font-family:Candara;-inkscape-font-specification:Candara" id="path8898"></path>
      <path d="m 42.237516,27.021679 -0.01102,0.205328 q -0.366558,-0.01654 -0.830957,-0.01654 0.01654,0.228755 0.01654,0.631141 0.323839,0 0.629763,-0.01102 v 0.199815 q -0.2949,-0.01102 -0.629763,-0.01102 0,0.538813 0.01516,0.796506 h -0.250803 q 0.01929,-0.427192 0.01929,-0.942578 0,-0.485069 -0.01929,-0.851627 z" style="font-family:Candara;-inkscape-font-specification:Candara" id="path8900"></path>
      <path d="M 42.729475,28.815884 H 42.48005 q 0.01929,-0.275608 0.01929,-0.629763 0,-0.398253 -0.04823,-0.668348 l 0.275608,-0.03721 q -0.01654,0.288009 -0.01654,0.705555 0,0.330729 0.01929,0.629763 z m 0.05788,-1.722547 q 0,0.07028 -0.04547,0.122646 -0.04548,0.05099 -0.128157,0.05099 -0.07028,0 -0.110243,-0.0441 -0.03858,-0.04548 -0.03858,-0.108865 0,-0.0689 0.04685,-0.119889 0.04685,-0.05099 0.129535,-0.05099 0.06752,0 0.106109,0.04547 0.03996,0.0441 0.03996,0.104731 z" style="font-family:Candara;-inkscape-font-specification:Candara" id="path8902"></path>
      <path d="M 44.261852,28.815884 H 44.01105 q 0.03032,-0.362424 0.03032,-0.790994 0,-0.212217 -0.08682,-0.289387 -0.08544,-0.07855 -0.24529,-0.07855 -0.195682,0 -0.361046,0.141938 0,0.469911 0.0055,1.016992 h -0.250803 q 0.02343,-0.468533 0.02343,-0.677995 0,-0.32246 -0.06063,-0.625629 l 0.242535,-0.03445 0.02618,0.16812 h 0.01103 q 0.203949,-0.184657 0.436838,-0.184657 0.228754,0 0.354155,0.101975 0.125401,0.100597 0.125401,0.359668 0,0.02618 -0.0028,0.103352 -0.0028,0.07717 -0.0028,0.103353 0,0.230132 0.0055,0.686263 z" style="font-family:Candara;-inkscape-font-specification:Candara" id="path8904"></path>
      <path d="m 45.657805,28.815884 -0.216352,0.0083 q -0.01654,-0.06752 -0.01654,-0.128158 h -0.01378 q -0.169498,0.154341 -0.461642,0.154341 -0.158474,0 -0.272852,-0.09233 -0.114377,-0.09371 -0.114377,-0.265961 0,-0.212218 0.179145,-0.340375 0.179145,-0.129536 0.665592,-0.136426 0.0041,-0.03307 0.0041,-0.07579 0,-0.169499 -0.09095,-0.225998 -0.08957,-0.0565 -0.272852,-0.0565 -0.216351,0 -0.425813,0.05374 l 0.02343,-0.190169 q 0.206705,-0.05926 0.475422,-0.05926 0.245291,0 0.378961,0.101975 0.133669,0.100597 0.133669,0.344509 0,0.06477 -0.0069,0.235645 -0.0055,0.169498 -0.0055,0.225998 0,0.250802 0.03721,0.446484 z m -0.243913,-0.26734 q -0.0069,-0.209461 -0.0069,-0.376204 -0.259071,0 -0.394119,0.03859 -0.225998,0.0689 -0.225998,0.263205 0,0.187413 0.264584,0.187413 0.227376,0 0.362423,-0.112999 z" style="font-family:Candara;-inkscape-font-specification:Candara" id="path8906"></path>
      <path d="m 47.175024,28.815884 h -0.250803 q 0.03032,-0.362424 0.03032,-0.790994 0,-0.212217 -0.08682,-0.289387 -0.08544,-0.07855 -0.245291,-0.07855 -0.195681,0 -0.361045,0.141938 0,0.469911 0.0055,1.016992 h -0.250803 q 0.02343,-0.468533 0.02343,-0.677995 0,-0.32246 -0.06063,-0.625629 l 0.242534,-0.03445 0.02618,0.16812 h 0.01102 q 0.20395,-0.184657 0.436838,-0.184657 0.228754,0 0.354156,0.101975 0.125401,0.100597 0.125401,0.359668 0,0.02618 -0.0028,0.103352 -0.0028,0.07717 -0.0028,0.103353 0,0.230132 0.0055,0.686263 z" style="font-family:Candara;-inkscape-font-specification:Candara" id="path8908"></path>
      <path d="m 48.503451,28.59402 -0.0083,0.221864 h -1.004589 l 0.01102,-0.213596 q 0.07304,-0.07028 0.373448,-0.43546 0.326595,-0.398253 0.326595,-0.446484 l -0.0014,-0.01516 q -0.44235,0 -0.701421,0.01791 l 0.0083,-0.216352 h 0.956358 l -0.01378,0.216352 q -0.114377,0.125402 -0.362423,0.438216 -0.308681,0.389985 -0.308681,0.443728 v 0.01102 q 0.416168,0 0.724848,-0.02205 z" style="font-family:Candara;-inkscape-font-specification:Candara" id="path8910"></path>
      <path d="m 49.951769,28.006976 q 0,0.05788 -0.0055,0.159852 l -0.946712,0.01654 q 0.01378,0.201193 0.155718,0.337619 0.141938,0.135047 0.376204,0.135047 0.209462,0 0.392741,-0.05099 l -0.02343,0.194303 q -0.135047,0.05374 -0.389984,0.05374 -0.35829,0 -0.547081,-0.195682 -0.187413,-0.195681 -0.187413,-0.4768 0,-0.300413 0.170877,-0.516764 0.172254,-0.21773 0.461642,-0.21773 0.265961,0 0.403765,0.157096 0.139182,0.157096 0.139182,0.403765 z m -0.230133,0.0028 q 0,-0.387229 -0.323838,-0.387229 -0.330729,0 -0.389985,0.402387 z" style="font-family:Candara;-inkscape-font-specification:Candara" id="path8912"></path>
      <path d="M 51.437292,28.815884 H 51.18649 q 0.03032,-0.362424 0.03032,-0.790994 0,-0.212217 -0.08682,-0.289387 -0.08544,-0.07855 -0.245291,-0.07855 -0.195681,0 -0.361045,0.141938 0,0.469911 0.0055,1.016992 h -0.250803 q 0.02343,-0.468533 0.02343,-0.677995 0,-0.32246 -0.06063,-0.625629 l 0.242535,-0.03445 0.02618,0.16812 h 0.01103 q 0.203949,-0.184657 0.436837,-0.184657 0.228755,0 0.354156,0.101975 0.125401,0.100597 0.125401,0.359668 0,0.02618 -0.0028,0.103352 -0.0028,0.07717 -0.0028,0.103353 0,0.230132 0.0055,0.686263 z" style="font-family:Candara;-inkscape-font-specification:Candara" id="path8914"></path>
      <path d="m 52.888365,28.015244 -0.01654,0.177767 -0.5898,0.01929 0.0124,-0.176388 z" style="font-family:Candara;-inkscape-font-specification:Candara" id="path8916"></path>
      <path d="m 55.191065,28.815884 h -0.30179 q 0,-0.01516 -0.157096,-0.239779 -0.181901,-0.260449 -0.332107,-0.429947 -0.20395,-0.230133 -0.30179,-0.230133 h -0.04272 q 0,0.322461 0.01378,0.899859 h -0.259071 q 0.02067,-0.427192 0.02067,-0.942578 0,-0.485069 -0.02067,-0.851627 h 0.259071 q -0.01378,0.366558 -0.01378,0.74414 h 0.03169 q 0.07579,0 0.377582,-0.351399 0.303169,-0.3514 0.303169,-0.392741 h 0.286631 q 0,0.04134 -0.2949,0.341753 -0.293521,0.299035 -0.436837,0.402387 v 0.01378 q 0.158474,0.06063 0.527788,0.54708 0.340375,0.447863 0.340375,0.489204 z" style="font-family:Candara;-inkscape-font-specification:Candara" id="path8918"></path>
      <path d="m 56.438189,28.815884 -0.216352,0.0083 q -0.01654,-0.06752 -0.01654,-0.128158 h -0.01378 q -0.169498,0.154341 -0.461642,0.154341 -0.158474,0 -0.272852,-0.09233 -0.114377,-0.09371 -0.114377,-0.265961 0,-0.212218 0.179145,-0.340375 0.179145,-0.129536 0.665592,-0.136426 0.0041,-0.03307 0.0041,-0.07579 0,-0.169499 -0.09095,-0.225998 -0.08957,-0.0565 -0.272852,-0.0565 -0.216351,0 -0.425813,0.05374 l 0.02343,-0.190169 q 0.206705,-0.05926 0.475422,-0.05926 0.245291,0 0.378961,0.101975 0.133669,0.100597 0.133669,0.344509 0,0.06477 -0.0069,0.235645 -0.0055,0.169498 -0.0055,0.225998 0,0.250802 0.03721,0.446484 z m -0.243913,-0.26734 q -0.0069,-0.209461 -0.0069,-0.376204 -0.259071,0 -0.394118,0.03859 -0.225999,0.0689 -0.225999,0.263205 0,0.187413 0.264584,0.187413 0.227376,0 0.362423,-0.112999 z" style="font-family:Candara;-inkscape-font-specification:Candara" id="path8920"></path>
      <path d="m 58.038089,28.107573 q 0,0.297656 -0.170877,0.522276 -0.169499,0.223242 -0.472667,0.223242 -0.253559,0 -0.333485,-0.09095 h -0.01378 q 0,0.383095 0.0083,0.683507 h -0.259071 q 0.03169,-0.366558 0.03169,-0.905371 0,-0.664214 -0.0689,-1.028016 l 0.242535,-0.03445 0.02067,0.136425 h 0.01378 q 0.133669,-0.155718 0.432703,-0.155718 0.263205,0 0.416167,0.192925 0.152963,0.191547 0.152963,0.456131 z m -0.245291,0.03307 q 0,-0.203949 -0.107487,-0.348643 -0.107487,-0.146072 -0.30179,-0.146072 -0.248047,0 -0.355534,0.150206 0.02205,0.463021 0.02205,0.795128 0.111621,0.09371 0.290766,0.09371 0.227376,0 0.338997,-0.159852 0.112999,-0.159853 0.112999,-0.384473 z" style="font-family:Candara;-inkscape-font-specification:Candara" id="path8922"></path>
      <path d="m 58.60584,28.815884 h -0.249424 q 0.01929,-0.275608 0.01929,-0.629763 0,-0.398253 -0.04823,-0.668348 l 0.275607,-0.03721 q -0.01654,0.288009 -0.01654,0.705555 0,0.330729 0.01929,0.629763 z m 0.05788,-1.722547 q 0,0.07028 -0.04548,0.122646 -0.04547,0.05099 -0.128158,0.05099 -0.07028,0 -0.110243,-0.0441 -0.03858,-0.04548 -0.03858,-0.108865 0,-0.0689 0.04685,-0.119889 0.04685,-0.05099 0.129535,-0.05099 0.06752,0 0.106109,0.04547 0.03996,0.0441 0.03996,0.104731 z" style="font-family:Candara;-inkscape-font-specification:Candara" id="path8924"></path>
      <path d="m 59.726185,28.625715 -0.01654,0.179144 q -0.108865,0.03996 -0.205328,0.03996 -0.248047,0 -0.338997,-0.125401 -0.09095,-0.126779 -0.09095,-0.451996 0,-0.21084 0.0028,-0.549837 -0.07717,0 -0.227376,0.0083 l 0.0083,-0.199815 q 0.130913,0.0083 0.234266,0.0083 0,-0.08268 0.01378,-0.392741 l 0.216352,-0.02205 q -0.02343,0.289388 -0.02343,0.414789 0.135048,0 0.396875,-0.01378 l -0.0096,0.205327 q -0.248047,-0.0083 -0.398253,-0.0083 -0.0028,0.208084 -0.0028,0.468533 0,0.283875 0.05926,0.376204 0.06063,0.09095 0.223242,0.09095 0.05374,0 0.158474,-0.02756 z" style="font-family:Candara;-inkscape-font-specification:Candara" id="path8926"></path>
      <path d="m 61.018786,28.815884 -0.216352,0.0083 q -0.01654,-0.06752 -0.01654,-0.128158 h -0.01378 q -0.169498,0.154341 -0.461642,0.154341 -0.158474,0 -0.272852,-0.09233 -0.114377,-0.09371 -0.114377,-0.265961 0,-0.212218 0.179145,-0.340375 0.179145,-0.129536 0.665592,-0.136426 0.0041,-0.03307 0.0041,-0.07579 0,-0.169499 -0.09095,-0.225998 -0.08957,-0.0565 -0.272852,-0.0565 -0.216351,0 -0.425813,0.05374 l 0.02343,-0.190169 q 0.206705,-0.05926 0.475422,-0.05926 0.245291,0 0.378961,0.101975 0.133669,0.100597 0.133669,0.344509 0,0.06477 -0.0069,0.235645 -0.0055,0.169498 -0.0055,0.225998 0,0.250802 0.03721,0.446484 z m -0.243913,-0.26734 q -0.0069,-0.209461 -0.0069,-0.376204 -0.259071,0 -0.394119,0.03859 -0.225998,0.0689 -0.225998,0.263205 0,0.187413 0.264584,0.187413 0.227376,0 0.362423,-0.112999 z" style="font-family:Candara;-inkscape-font-specification:Candara" id="path8928"></path>
      <path d="m 61.634767,28.815884 h -0.264583 q 0.02481,-0.454753 0.02481,-1.028016 0,-0.556727 -0.03996,-0.910883 l 0.279742,-0.01378 q -0.02618,0.374826 -0.02618,0.924663 0,0.566373 0.02618,1.028016 z" style="font-family:Candara;-inkscape-font-specification:Candara" id="path8930"></path>
    </g>
    <path style="fill:none;stroke:#ffffff;stroke-width:0.25;stroke-linecap:butt;stroke-linejoin:miter;stroke-miterlimit:4;stroke-dasharray:none;stroke-opacity:1" d="m 17.16381,25.571398 v 5.002278 h 4.996373" id="path841"></path>
    <path style="fill:none;stroke:#ffffff;stroke-width:0.25;stroke-linecap:butt;stroke-linejoin:miter;stroke-miterlimit:4;stroke-dasharray:none;stroke-opacity:1" d="M 68.067049,24.065327 V 19.063049 H 63.070677" id="path841-3"></path>
  </g>
</svg>
