<?xml version="1.0" encoding="UTF-8" standalone="no"?>
<svg
   xmlns:dc="http://purl.org/dc/elements/1.1/"
   xmlns:cc="http://creativecommons.org/ns#"
   xmlns:rdf="http://www.w3.org/1999/02/22-rdf-syntax-ns#"
   xmlns:svg="http://www.w3.org/2000/svg"
   xmlns="http://www.w3.org/2000/svg"
   viewBox="0 0 817.14667 817.1333"
   height="817.1333"
   width="817.14667"
   xml:space="preserve"
   id="svg2"
   version="1.1"><metadata
     id="metadata8"><rdf:RDF><cc:Work
         rdf:about=""><dc:format>image/svg+xml</dc:format><dc:type
           rdf:resource="http://purl.org/dc/dcmitype/StillImage" /></cc:Work></rdf:RDF></metadata><defs
     id="defs6" /><g
     transform="matrix(1.3333333,0,0,-1.3333333,0,817.13333)"
     id="g10"><g
       transform="scale(0.1)"
       id="g12"><path
         id="path14"
         style="fill:none;stroke:#254aa5;stroke-width:34.01599884;stroke-linecap:butt;stroke-linejoin:miter;stroke-miterlimit:4;stroke-dasharray:none;stroke-opacity:1"
         d="m 6073.75,3561.9 h -405 v 320.75 h -322.52 v 0.07 C 5010.54,4818.52 4115.58,5487.89 3064.29,5487.89 1725.76,5487.89 640.668,4402.8 640.668,3064.27 640.668,1725.74 1725.76,640.641 3064.29,640.641 c 895.06,0 1676.82,485.219 2096.54,1206.969 l -7.08,0.04 h 270 c 0,0 172.28,322.38 587.28,437.38 C 5666.71,979.57 4477.92,17.0117 3064.25,17.0117 1381.3,17.0117 17.0078,1381.31 17.0078,3064.26 c 0,1682.96 1364.2922,3047.26 3047.2422,3047.26 1683.01,0 3047.31,-1364.3 3047.31,-3047.26 0,-112.05 -6.04,-222.69 -17.83,-331.61 H 4300 v -555 h 268.75 l 5.03,-0.1 c -304.25,-516.84 -866.36,-863.68 -1509.49,-863.68 -966.72,0 -1750.4,783.69 -1750.4,1750.41 0,966.71 783.68,1750.39 1750.4,1750.39 666.96,0 1246.76,-373.02 1542.23,-921.79 l -0.24,-0.1 -306.28,-0.13 v -460 h 1783.75" /><path
         id="path16"
         style="fill:#254aa5;fill-opacity:1;fill-rule:nonzero;stroke:none"
         d="m 4410,2632.65 v -355 h 359.94 C 4472.34,1633.4 3820.56,1186.31 3064.27,1186.31 c -1037.16,0 -1877.94,840.78 -1877.94,1877.95 0,1037.18 840.78,1877.96 1877.94,1877.96 782.7,0 1453.38,-478.89 1735.45,-1159.57 H 4410 v -237.76 h 1143.75 v 237.76 h -308.31 c -301.58,916.18 -1164,1577.68 -2181.16,1577.68 -1268.08,0 -2296.061,-1027.99 -2296.061,-2296.06 0,-1268.09 1027.981,-2296.071 2296.061,-2296.071 876.97,0 1639,491.721 2025.66,1214.451 H 5345 c 0,0 285,360 695,435 l 38.75,215 H 4410" /><path
         id="path18"
         style="fill:#254aa5;fill-opacity:1;fill-rule:nonzero;stroke:none"
         d="m 2748.22,5982.45 87.65,11.74 -83.06,-421.81 -80.36,-10.77 -190.02,385.24 90.47,12.11 127.48,-294.08 1.12,0.15 46.72,317.42" /><path
         id="path20"
         style="fill:#254aa5;fill-opacity:1;fill-rule:nonzero;stroke:none"
         d="m 3101.01,5589.19 -79.37,0.51 1.55,244.91 -43.65,0.27 0.36,56.69 43.65,-0.27 0.16,24.38 c 0.4,62.36 34.57,85.95 88.98,85.61 23.24,-0.15 34.02,-0.79 40.82,-1.4 l -0.41,-64.06 -22.11,0.14 c -27.21,0.17 -27.83,-8.33 -27.99,-33.27 l -0.08,-11.91 51.59,-0.33 -0.35,-56.69 -51.59,0.33 -1.56,-244.91" /><path
         id="path22"
         style="fill:#254aa5;fill-opacity:1;fill-rule:nonzero;stroke:none"
         d="m 3370.33,5643.98 200.41,-28.25 -10.3,-72.98 -284.61,40.12 56.82,403.07 84.2,-11.87 -46.52,-330.09" /><path
         id="path24"
         style="fill:#254aa5;fill-opacity:1;fill-rule:nonzero;stroke:none"
         d="m 1057.07,1219.8 114.62,-125.65 -162.09,-147.861 -38.209,41.883 31.959,40.668 c -32.94,-0.89 -81.182,-2.7 -131.233,52.18 -66.101,72.46 -74.148,185.59 31.399,281.87 82.093,74.89 201.224,99.92 293.264,-1.82 84.06,-92.14 57.41,-183.22 19,-224.4 l -57.31,62.83 c 11.73,10.7 29.93,66.45 -10.56,110.84 -40.89,44.82 -109.71,58.01 -186.773,-12.29 -82.094,-74.89 -62.574,-139.19 -23.602,-181.92 12.61,-13.82 60.082,-54.92 132.665,-12.51 l -63.81,69.95 50.68,46.23" /><path
         id="path26"
         style="fill:#254aa5;fill-opacity:1;fill-rule:nonzero;stroke:none"
         d="m 1469.27,754.109 c -65.88,-84.5 -145.09,-80.988 -226.01,-17.898 -29.51,23.008 -67.76,64.32 -71.62,118.371 -2.1,33.27 11.41,64.43 35.61,97.316 l 165.91,212.842 68.41,-53.33 -162.43,-208.359 c -34.85,-44.719 -24.26,-84.602 7.04,-109.012 46.06,-35.898 82.26,-28.18 112.58,10.723 l 164.87,211.478 68.42,-53.318 -162.78,-208.813" /><path
         id="path28"
         style="fill:#254aa5;fill-opacity:1;fill-rule:nonzero;stroke:none"
         d="m 1860.63,369.922 -70.17,37.09 158.96,300.73 -1.01,0.528 -226.11,-265.231 -73.68,38.941 93.29,335.442 -1,0.527 -158.96,-300.726 -70.17,37.09 190.22,359.878 109.76,-58.019 -84.78,-318.133 1,-0.539 214.1,249.781 108.77,-57.48 -190.22,-359.879" /><path
         id="path30"
         style="fill:#254aa5;fill-opacity:1;fill-rule:nonzero;stroke:none"
         d="m 2384.33,193.93 -75.89,23.242 99.6,325.238 -1.09,0.332 -172.24,-302.992 -79.68,24.391 28.59,347 -1.09,0.328 -99.6,-325.25 -75.89,23.242 119.19,389.219 118.72,-36.36 -23.49,-328.39 1.08,-0.34 163.35,285.57 117.63,-36.019 -119.19,-389.211" /><path
         id="path32"
         style="fill:#254aa5;fill-opacity:1;fill-rule:nonzero;stroke:none"
         d="m 2877.97,460.039 -214.28,27.16 -10.77,-84.918 196.86,-24.972 -9.06,-71.418 -196.85,24.949 -13.26,-104.61 223.85,-28.378 -9.06,-71.422 -306.52,38.851 51.19,403.821 296.96,-37.641 -9.06,-71.422" /><path
         id="path34"
         style="fill:#254aa5;fill-opacity:1;fill-rule:nonzero;stroke:none"
         d="m 2985.89,119.93 83.3,2.531 -4.82,159.23 87.83,2.661 c 62.89,1.898 66.96,-19.532 68.63,-75.063 1.27,-41.937 5.32,-62.797 11.57,-81.898 l 94.06,2.851 -0.33,10.778 c -18.34,6.25 -18.79,20.972 -20.59,80.472 -2.3,75.938 -20.8,87.86 -54.69,101.578 39.83,14.821 61.33,54.039 59.97,98.801 -1.06,35.141 -23.31,114.442 -131.55,111.168 l -205.7,-6.226 z m 76.4,230.332 -3.29,108.797 105.98,3.211 c 49.86,1.511 60.44,-29.938 61.11,-51.469 1.21,-40.231 -19.86,-56.18 -64.06,-57.52 l -99.74,-3.019" /><path
         id="path36"
         style="fill:#254aa5;fill-opacity:1;fill-rule:nonzero;stroke:none"
         d="m 3502.14,282.461 c 4.81,-22.172 23.99,-62.371 96.96,-48.5 39.53,7.531 81.73,25.379 73.67,67.699 -5.92,31.192 -37.6,33.82 -81.82,35.789 l -44.8,1.871 c -67.46,2.743 -132.6,5.352 -149.34,93.352 -8.48,44.551 0.53,127.629 130.29,152.328 122.52,23.32 170.65,-50.629 180.53,-99.531 l -80.19,-15.27 c -5.63,17.403 -20.37,58.461 -93.32,44.582 -31.76,-6.051 -67.41,-24.961 -60.51,-61.16 5.94,-31.18 32.83,-32.992 50.27,-33.711 l 102.03,-5.398 c 57.11,-2.981 111.49,-15.711 125.16,-87.563 22.89,-120.297 -97.62,-154.199 -132.72,-160.879 -145.91,-27.757 -186.97,51.571 -196.4,101.129 l 80.19,15.262" /><path
         id="path38"
         style="fill:#254aa5;fill-opacity:1;fill-rule:nonzero;stroke:none"
         d="m 3868.32,587.891 91.68,33.238 c 36.23,13.141 62.1,11.66 73.49,-19.777 11.02,-30.379 -9.59,-51.723 -41.03,-63.133 l -93.81,-34 z m 38.02,-344.411 162.03,58.743 c 78.34,28.398 94.3,49.257 108.42,78.496 13.11,27.07 15.47,60.492 4.46,90.871 -13.72,37.84 -39.5,70.699 -92.78,71.289 13.09,13.793 38.4,40.453 18.5,95.351 -14.3,39.45 -59.55,89.379 -153.36,55.36 l -186,-67.43 z m 15.69,196.25 101.81,36.899 c 28.77,10.441 62.19,8.082 74.38,-25.5 14.1,-38.899 -2.11,-64.078 -41.02,-78.18 l -98.06,-35.558 -37.11,102.339" /><path
         id="path40"
         style="fill:#254aa5;fill-opacity:1;fill-rule:nonzero;stroke:none"
         d="m 4373.84,527.609 131.37,72.911 63.52,-60.711 80.8,44.851 -322.95,286.313 -85.76,-47.614 70.64,-426.339 78.32,43.472 z m -46.81,238.563 0.99,0.547 122.25,-116.289 -90.7,-50.34 -32.54,166.082" /><path
         id="path42"
         style="fill:#254aa5;fill-opacity:1;fill-rule:nonzero;stroke:none"
         d="m 4770.97,1019.57 c -20.37,15.04 -58.89,43.23 -114.31,0 -32.19,-25.101 -62.84,-83.519 7.92,-174.269 44.99,-57.66 108.23,-91.75 165,-47.469 37.11,28.949 46.65,70.18 24.01,115.789 l 67.07,52.301 c 40.98,-80.203 33.38,-164.481 -47.09,-227.25 -85.39,-66.59 -191.6,-56.692 -278.07,54.18 -87.52,112.218 -67.32,219.988 15.37,284.488 96.14,74.96 186.63,39.13 227.15,-5.47 l -67.05,-52.3" /><path
         id="path44"
         style="fill:#254aa5;fill-opacity:1;fill-rule:nonzero;stroke:none"
         d="m 5028.57,1135.14 134.18,-123.79 -57.68,-62.498 -299.16,276.018 57.66,62.5 113.34,-104.57 107.64,116.67 -113.34,104.57 57.67,62.5 299.18,-276.02 -57.67,-62.5 -134.16,123.79 -107.66,-116.67" /><path
         id="path46"
         style="fill:#254aa5;fill-opacity:1;fill-rule:nonzero;stroke:none"
         d="m 2464.1,1569.59 h -47.96 v 254.61 h -83.68 v 35.71 c 58.17,4.08 82.14,9.7 96.43,68.37 h 35.21 v -358.69" /><path
         id="path48"
         style="fill:#254aa5;fill-opacity:1;fill-rule:nonzero;stroke:none"
         d="m 2669.72,1776.75 c -32.65,0 -62.76,20.92 -62.76,55.1 0,22.96 11.74,56.13 59.7,56.13 52.56,0 66.84,-31.64 66.84,-53.58 0,-32.65 -25,-57.65 -63.78,-57.65 z m 110.22,59.18 c 0,41.84 -31.13,92.35 -110.73,92.35 -85.71,0 -108.68,-61.22 -108.68,-98.47 0,-33.68 17.86,-58.17 48.47,-69.9 -37.75,-15.31 -60.71,-43.38 -60.71,-87.25 0,-17.35 0,-56.13 36.73,-85.21 28.58,-22.45 66.34,-27.56 86.23,-27.56 84.7,0 121.44,55.62 121.44,113.27 0,27.04 -10.2,66.85 -58.68,87.26 15.82,8.16 45.93,23.97 45.93,75.51 z m -109.71,-97.96 c 40.82,0 74.5,-21.44 74.5,-69.9 0,-56.13 -39.29,-67.87 -71.95,-67.87 -62.24,0 -76.53,42.87 -76.53,71.44 0,33.16 23.47,66.33 73.98,66.33" /><path
         id="path50"
         style="fill:#254aa5;fill-opacity:1;fill-rule:nonzero;stroke:none"
         d="m 3474.37,1832.87 c -4.59,72.96 -63.28,95.41 -104.61,95.41 -107.15,0 -132.66,-113.27 -132.66,-191.84 0,-46.95 6.14,-90.83 27.56,-124.5 25.51,-39.8 64.81,-52.05 92.35,-52.05 50.52,0 71.95,13.78 90.82,34.7 24.49,26.53 34.2,53.07 34.2,89.8 0,85.72 -68.38,113.78 -112.27,113.78 -48.98,0 -73.98,-24.49 -85.19,-43.87 l -1.04,1.01 c 0,37.77 14.8,132.67 85.22,132.67 38.78,0 56.13,-23.48 61.73,-55.11 z M 3289.66,1679.8 c 0,42.35 23.99,78.07 73.48,78.07 55.61,0 72.44,-43.89 72.44,-75.52 0,-48.47 -27.54,-82.15 -70.41,-82.15 -52.56,0 -75.51,41.33 -75.51,79.6" /><path
         id="path52"
         style="fill:#254aa5;fill-opacity:1;fill-rule:nonzero;stroke:none"
         d="m 3664.17,1569.59 h -47.96 v 254.61 h -83.68 v 35.71 c 58.17,4.08 82.15,9.7 96.43,68.37 h 35.21 v -358.69" /><path
         id="path54"
         style="fill:#254aa5;fill-opacity:1;fill-rule:nonzero;stroke:none"
         d="m 2181.66,2392.65 -140,96.67 3.33,969.99 387.59,163.34 2.41,-786.67 c 0,0 -40,-280 -253.33,-443.33 z m 470,526.67 -3.33,1083.33 -650,-283.34 -286.67,196.67 -156.67,-193.33 210,-156.67 v -970 l -150,-203.33 530,-353.33 c 333.34,223.34 450,510 450,510 66.67,123.34 56.67,370 56.67,370" /><path
         id="path56"
         style="fill:#254aa5;fill-opacity:1;fill-rule:nonzero;stroke:none"
         d="m 3545,4202.65 -266.68,286.66 -526.66,-406.66 160,-250 v -550 l -53.33,-3.34 c 0,0 -10,0 -23.34,-26.66 0,0 -81.48,-206.65 -90.92,-213.33 -15.37,-10.89 -20.32,-32.44 -2.41,-33.34 17.9,-0.91 166.67,0 166.67,0 0,0 -0.54,-1524.34 0,-1550 0.53,-25.67 17.96,-35.92 33.33,-35.76 7.24,0.08 20.58,-1.58 36.67,32.43 17.32,36.63 164.24,286.66 164.24,603.33 v 950 H 3205 c 0,0 32.5,-3.41 40,40 l 56.66,200 c 0,0 5.85,31.01 -27.47,37.68 l -122.53,5.65 v 590 l -93.33,146.67 179.99,146.67 136.68,-123.34 170,153.34" /><path
         id="path58"
         style="fill:#254aa5;fill-opacity:1;fill-rule:nonzero;stroke:none"
         d="m 4222.73,3493.51 -300.39,456.26 -623.46,-272.06 218.22,-1099.55 -181.38,-255.05 484.61,-325.89 405.23,334.39 -150.19,170.04 -252.21,-201.21 -150.2,116.19 113.36,158.7 -201.21,974.86 215.37,104.85 206.88,-294.72 215.37,133.19" /></g></g></svg>